<?xml version="1.0" standalone="no"?><!DOCTYPE svg PUBLIC "-//W3C//DTD SVG 1.1//EN" "http://www.w3.org/Graphics/SVG/1.1/DTD/svg11.dtd"><svg t="1546561707752" class="icon" style="" viewBox="0 0 1024 1024" version="1.1" xmlns="http://www.w3.org/2000/svg" p-id="4921" xmlns:xlink="http://www.w3.org/1999/xlink" width="200" height="200"><defs><style type="text/css"></style></defs><path d="M 657.877 510.148 L 408.951 510.148 c -11.8357 0 -21.4187 -9.58293 -21.4187 -21.4101 s 9.58293 -21.4187 21.4187 -21.4187 l 248.926 0 c 11.8272 0 21.4187 9.59147 21.4187 21.4187 S 669.696 510.148 657.877 510.148 L 657.877 510.148 Z" fill="#8a8a8a" p-id="4922"></path><path d="M 657.877 518.682 L 408.951 518.682 c -16.5205 0 -29.952 -13.4315 -29.952 -29.9435 s 13.4315 -29.952 29.952 -29.952 l 248.926 0 c 16.5205 0 29.952 13.44 29.952 29.952 S 674.389 518.682 657.877 518.682 Z M 408.951 475.853 c -7.09973 0 -12.8853 5.77707 -12.8853 12.8853 c 0 7.09973 5.7856 12.8768 12.8853 12.8768 l 248.926 0 c 7.09973 0 12.8853 -5.77707 12.8853 -12.8768 c 0 -7.10827 -5.7856 -12.8853 -12.8853 -12.8853 L 408.951 475.853 Z" fill="#8a8a8a" p-id="4923"></path><path d="M 657.877 611.61 L 408.951 611.61 c -11.8357 0 -21.4187 -9.59147 -21.4187 -21.4187 s 9.58293 -21.4187 21.4187 -21.4187 l 248.926 0 c 11.8272 0 21.4187 9.59147 21.4187 21.4187 S 669.696 611.61 657.877 611.61 L 657.877 611.61 Z" fill="#8a8a8a" p-id="4924"></path><path d="M 657.877 620.143 L 408.951 620.143 c -16.5205 0 -29.952 -13.4315 -29.952 -29.952 s 13.4315 -29.952 29.952 -29.952 l 248.926 0 c 16.5205 0 29.952 13.4315 29.952 29.952 S 674.389 620.143 657.877 620.143 Z M 408.951 577.306 c -7.09973 0 -12.8853 5.7856 -12.8853 12.8853 s 5.7856 12.8853 12.8853 12.8853 l 248.926 0 c 7.09973 0 12.8853 -5.7856 12.8853 -12.8853 s -5.7856 -12.8853 -12.8853 -12.8853 L 408.951 577.306 Z" fill="#8a8a8a" p-id="4925"></path><path d="M 533.419 736.068 c -11.8357 0 -21.4187 -9.58293 -21.4187 -21.4187 L 512 498.893 c 0 -11.8357 9.58293 -21.4272 21.4187 -21.4272 c 11.8272 0 21.4187 9.59147 21.4187 21.4272 l 0 215.757 C 554.837 726.485 545.246 736.068 533.419 736.068 L 533.419 736.068 Z" fill="#8a8a8a" p-id="4926"></path><path d="M 533.419 744.602 c -16.5205 0 -29.952 -13.4315 -29.952 -29.952 L 503.467 498.893 c 0 -16.5205 13.4315 -29.9605 29.952 -29.9605 s 29.952 13.44 29.952 29.9605 l 0 215.757 C 563.371 731.17 549.931 744.602 533.419 744.602 Z M 533.419 485.999 c -7.09973 0 -12.8853 5.7856 -12.8853 12.8939 l 0 215.757 c 0 7.09973 5.7856 12.8853 12.8853 12.8853 s 12.8853 -5.7856 12.8853 -12.8853 L 546.304 498.893 C 546.304 491.776 540.518 485.999 533.419 485.999 Z" fill="#8a8a8a" p-id="4927"></path><path d="M 533.769 448.913 c -5.4784 0 -10.9483 -2.0992 -15.1296 -6.272 L 405.547 329.557 c -8.36267 -8.36267 -8.36267 -21.9221 0 -30.2848 c 8.35413 -8.36267 21.9136 -8.36267 30.2848 0 l 113.084 113.075 c 8.36267 8.3712 8.36267 21.9221 0 30.2933 C 544.734 446.822 539.247 448.913 533.769 448.913 L 533.769 448.913 Z" fill="#8a8a8a" p-id="4928"></path><path d="M 533.769 457.446 c -7.9872 0 -15.4965 -3.11467 -21.1541 -8.76373 L 399.514 335.59 c -5.6576 -5.6576 -8.77227 -13.1755 -8.77227 -21.1712 s 3.11467 -15.5221 8.77227 -21.1797 c 11.2981 -11.3067 31.0357 -11.3152 42.3509 0 l 113.084 113.084 c 11.6736 11.6821 11.6736 30.6859 0 42.3595 C 549.282 454.34 541.756 457.446 533.769 457.446 Z M 420.693 301.534 c -3.43893 0 -6.67307 1.33973 -9.10507 3.77173 s -3.77173 5.67467 -3.77173 9.1136 c 0 3.43893 1.33973 6.67307 3.77173 9.10507 l 113.084 113.092 c 4.87253 4.864 13.3461 4.85547 18.2272 -0.008533 c 5.0176 -5.0176 5.0176 -13.1925 -0.008533 -18.2187 L 429.798 305.306 C 427.366 302.874 424.132 301.534 420.693 301.534 Z" fill="#8a8a8a" p-id="4929"></path><path d="M 534.545 448.913 c -5.48693 0 -10.9568 -2.0992 -15.1467 -6.272 c -8.35413 -8.3712 -8.35413 -21.9221 0 -30.2933 l 113.092 -113.075 c 8.35413 -8.36267 21.9136 -8.36267 30.2848 0 c 8.36267 8.35413 8.36267 21.9221 0 30.2848 L 549.683 442.65 C 545.502 446.822 540.015 448.913 534.545 448.913 L 534.545 448.913 Z" fill="#8a8a8a" p-id="4930"></path><path d="M 534.545 457.446 c -7.9872 0 -15.4965 -3.10613 -21.1712 -8.7552 c -11.6736 -11.6907 -11.6736 -30.6944 -0.017067 -42.368 l 113.101 -113.084 c 11.2896 -11.3067 31.0272 -11.3152 42.3509 0 c 5.6576 5.6576 8.77227 13.1755 8.77227 21.1797 s -3.11467 15.5221 -8.77227 21.1797 L 555.716 448.683 C 550.05 454.34 542.532 457.446 534.545 457.446 Z M 647.629 301.534 c -3.43893 0 -6.67307 1.33973 -9.10507 3.77173 L 525.423 418.381 c -5.0176 5.02613 -5.0176 13.2011 0.008533 18.2357 c 4.864 4.84693 13.3376 4.864 18.2272 -0.008533 l 113.075 -113.075 c 2.432 -2.432 3.77173 -5.67467 3.77173 -9.1136 s -1.33973 -6.67307 -3.77173 -9.10507 C 654.302 302.874 651.068 301.534 647.629 301.534 Z" fill="#8a8a8a" p-id="4931"></path><path d="M 533.419 955.332 c -60.0917 0 -118.391 -11.776 -173.295 -34.9952 c -53.0091 -22.4256 -100.625 -54.528 -141.5 -95.4027 c -40.8747 -40.8661 -72.9771 -88.4821 -95.3941 -141.5 c -23.2192 -54.8949 -34.9952 -113.195 -34.9952 -173.278 c 0 -60.0917 11.776 -118.4 34.9952 -173.295 c 22.4171 -53.0091 54.5195 -100.625 95.3941 -141.491 c 40.8747 -40.8832 88.4907 -72.9771 141.5 -95.4027 c 54.8949 -23.2192 113.203 -34.9952 173.295 -34.9952 c 60.0832 0 118.383 11.776 173.286 34.9952 c 53.0176 22.4256 100.617 54.528 141.5 95.4027 c 40.8747 40.8661 72.9685 88.4821 95.3941 141.491 c 23.2192 54.9035 34.9952 113.203 34.9952 173.278 c 0 60.1003 -11.776 118.4 -34.9952 173.295 c -22.4256 53.0176 -54.5195 100.634 -95.3941 141.5 c -40.8832 40.8747 -88.4821 72.9771 -141.5 95.4027 C 651.802 943.556 593.502 955.332 533.419 955.332 L 533.419 955.332 Z M 533.419 107.162 c -222.217 0 -403.004 180.779 -403.004 402.987 c 0 222.225 180.787 403.012 403.004 403.012 c 222.208 0 403.004 -180.787 403.004 -403.012 C 936.414 287.94 755.627 107.162 533.419 107.162 L 533.419 107.162 Z" fill="#8a8a8a" p-id="4932"></path><path d="M 533.419 963.866 c -61.2352 0 -120.653 -11.9979 -176.614 -35.6693 c -54.0331 -22.8608 -102.562 -55.5691 -144.205 -97.2288 c -41.6597 -41.6512 -74.368 -90.1632 -97.2203 -144.205 c -23.6629 -55.9616 -35.6693 -115.379 -35.6693 -176.597 c 0 -61.2352 11.9979 -120.661 35.6693 -176.623 c 22.8523 -54.0331 55.5605 -102.554 97.2203 -144.196 c 41.6512 -41.6512 90.1632 -74.368 144.205 -97.2288 c 55.9616 -23.6629 115.379 -35.6693 176.614 -35.6693 c 61.2267 0 120.644 11.9979 176.606 35.6693 c 54.016 22.8437 102.537 55.5605 144.205 97.2288 c 41.6427 41.6341 74.3595 90.1547 97.2203 144.196 c 23.6629 55.9616 35.6693 115.379 35.6693 176.606 c 0 61.2437 -11.9979 120.661 -35.6693 176.614 c -22.8693 54.0501 -55.5776 102.579 -97.2203 144.205 c -41.6768 41.6683 -90.1888 74.3765 -144.205 97.2288 C 654.054 951.868 594.645 963.866 533.419 963.866 Z M 533.419 73.5147 c -58.9397 0 -116.122 11.5456 -169.967 34.3125 c -52.0107 21.9989 -98.6965 53.4869 -138.795 93.5765 c -40.0981 40.0896 -71.5776 86.784 -93.568 138.786 c -22.7669 53.8453 -34.3125 111.036 -34.3125 169.967 c 0 58.9312 11.5541 116.105 34.3125 169.95 c 21.9904 52.0107 53.4699 98.6965 93.568 138.795 c 40.0896 40.0896 86.7925 71.5776 138.795 93.5765 c 53.8539 22.7669 111.036 34.3125 169.967 34.3125 s 116.105 -11.5541 169.958 -34.3125 c 51.9851 -21.9904 98.6709 -53.4784 138.795 -93.5765 c 40.0811 -40.0725 71.5605 -86.7755 93.568 -138.795 c 22.7669 -53.8453 34.3125 -111.027 34.3125 -169.967 c 0 -58.9227 -11.5541 -116.105 -34.3125 -169.958 c -21.9989 -52.0107 -53.4869 -98.7051 -93.568 -138.786 c -40.1067 -40.1067 -86.8096 -71.5947 -138.795 -93.5765 C 649.523 85.0603 592.35 73.5147 533.419 73.5147 Z M 533.419 921.694 c -226.918 0 -411.537 -184.619 -411.537 -411.546 c 0 -226.91 184.619 -411.52 411.537 -411.52 s 411.537 184.61 411.537 411.52 C 944.947 737.075 760.337 921.694 533.419 921.694 Z M 533.419 115.695 c -217.506 0 -394.47 176.947 -394.47 394.453 c 0 217.515 176.956 394.479 394.47 394.479 s 394.47 -176.956 394.47 -394.479 C 927.881 292.642 750.925 115.695 533.419 115.695 Z" fill="#8a8a8a" p-id="4933"></path></svg>