<?xml version="1.0" standalone="no"?><!DOCTYPE svg PUBLIC "-//W3C//DTD SVG 1.1//EN" "http://www.w3.org/Graphics/SVG/1.1/DTD/svg11.dtd"><svg t="1547187275965" class="icon" style="" viewBox="0 0 1024 1024" version="1.1" xmlns="http://www.w3.org/2000/svg" p-id="1651" xmlns:xlink="http://www.w3.org/1999/xlink" width="200" height="200"><defs><style type="text/css"></style></defs><path d="M593.454545 430.545455h336.709819C918.621091 250.135273 773.864727 105.378909 593.454545 93.835636V430.545455z m405.690182 69.818181H523.636364V24.855273l37.492363-1.186909c3.002182-0.209455 6.004364-0.395636 9.053091-0.395637C807.586909 23.272727 1000.727273 216.413091 1000.727273 453.818182c0 3.048727-0.186182 6.050909-0.395637 9.053091l-1.186909 37.492363zM453.818182 1000.727273C216.413091 1000.727273 23.272727 807.586909 23.272727 570.181818 23.272727 335.918545 206.848 147.083636 441.157818 140.264727L477.090909 139.170909V546.909091h407.714909l-1.047273 35.956364c-6.818909 234.309818-195.677091 417.861818-429.940363 417.861818z m-46.545455-787.898182A358.446545 358.446545 0 0 0 93.090909 570.181818C93.090909 769.093818 254.906182 930.909091 453.818182 930.909091c184.087273 0 334.708364-135.354182 357.352727-314.181818H407.272727V212.829091z" fill="#797979" p-id="1652"></path></svg>